# xmcd CD database file
#
# Track frame offsets:
#	182
#	12507
#	26345
#	38912
#	51140
#	61665
#	75682
#	87130
#	99532
#	113697
#	127335
#	141872
#
# Disc length: 2061 seconds
#
# Revision: 0
# Processed by: cddbd v1.5.2PL0 Copyright (c) Steve Scherf et al.
# Submitted via: CDex 1.51
#
DISCID=97080b0c
DTITLE=HANK SNOW - SINGING RANGER, THE
DYEAR=1996
DGENRE=Country
TTITLE0=HONEYMOON ON A ROCKET SHIP-HANK SNOW
TTITLE1=ENGINEER'S CHILD, THE-HANK SNOW
TTITLE2=BEN DEWBERRY'S FINAL RUN-HANK SNOW
TTITLE3=BORN TO BE HAPPY-HANK SNOW
TTITLE4=GOLD RUSH IS OVER, THE-HANK SNOW
TTITLE5=I CRIED BUT MY TEARS WERE TOO LATE-HANK SNOW
TTITLE6=MISSISSIPPI RIVER BLUES-HANK SNOW
TTITLE7=I WENT TO YOUR WEDDING-HANK SNOW
TTITLE8=NIGHT I STOLE OLD SAMMY MORGAN'S GIN, THE-HANK SNOW
TTITLE9=JUST A FADED PETAL FROM A BEAUTIFUL BOUQUET-HANK SNOW
TTITLE10=SOMEWHERE ALONG LIFE'S HIGHWAY-HANK SNOW
TTITLE11=I'M GONNA BID MY BLUES GOODBYE-HANK SNOW
EXTD=YEAR: 1996
EXTT0=
EXTT1=
EXTT2=
EXTT3=
EXTT4=
EXTT5=
EXTT6=
EXTT7=
EXTT8=
EXTT9=
EXTT10=
EXTT11=
PLAYORDER=
